<svg width="553" height="553" viewBox="0 0 553 553" fill="none" xmlns="http://www.w3.org/2000/svg">
<g clip-path="url(#clip0_94_20)">
<path d="M276.5 553C429.207 553 553 429.207 553 276.5C553 123.793 429.207 0 276.5 0C123.793 0 0 123.793 0 276.5C0 429.207 123.793 553 276.5 553Z" fill="#6C9AA9"/>
<path d="M372.319 188.474C354.392 180.246 335.473 174.379 316.036 171.019C315.859 170.986 315.676 171.009 315.513 171.086C315.35 171.162 315.216 171.288 315.129 171.446C312.548 176.124 310.205 180.929 308.109 185.844C287.158 182.662 265.847 182.662 244.897 185.844C242.791 180.917 240.415 176.111 237.779 171.446C237.689 171.292 237.554 171.168 237.392 171.092C237.23 171.016 237.049 170.991 236.872 171.019C217.441 174.373 198.528 180.24 180.611 188.474C180.456 188.538 180.326 188.65 180.238 188.792C144.396 242.348 134.578 294.586 139.395 346.165C139.409 346.292 139.448 346.414 139.51 346.526C139.572 346.637 139.656 346.735 139.757 346.813C160.628 362.274 183.975 374.076 208.801 381.716C208.976 381.768 209.163 381.766 209.337 381.709C209.51 381.652 209.663 381.543 209.773 381.397C215.103 374.14 219.827 366.457 223.895 358.424C223.95 358.314 223.982 358.193 223.987 358.07C223.993 357.946 223.972 357.823 223.927 357.709C223.882 357.594 223.812 357.49 223.724 357.404C223.636 357.318 223.53 357.251 223.414 357.209C215.965 354.363 208.753 350.932 201.845 346.948C201.72 346.874 201.614 346.771 201.539 346.647C201.463 346.523 201.418 346.382 201.41 346.237C201.401 346.091 201.429 345.946 201.49 345.814C201.55 345.682 201.643 345.567 201.759 345.479C203.206 344.399 204.659 343.265 206.041 342.12C206.164 342.019 206.312 341.955 206.47 341.934C206.627 341.913 206.787 341.936 206.932 342.001C252.182 362.663 301.174 362.663 345.89 342.001C346.036 341.931 346.198 341.904 346.359 341.924C346.52 341.943 346.671 342.007 346.797 342.109C348.179 343.249 349.632 344.394 351.117 345.479C351.234 345.566 351.327 345.681 351.388 345.812C351.45 345.944 351.479 346.089 351.471 346.234C351.464 346.379 351.421 346.52 351.346 346.645C351.271 346.769 351.166 346.873 351.042 346.948C344.143 350.971 336.917 354.403 329.44 357.209C329.324 357.253 329.218 357.321 329.129 357.409C329.041 357.497 328.972 357.602 328.928 357.719C328.884 357.835 328.864 357.96 328.872 358.084C328.879 358.208 328.913 358.33 328.97 358.44C333.106 366.429 337.823 374.104 343.081 381.403C343.188 381.553 343.34 381.666 343.514 381.725C343.689 381.784 343.877 381.786 344.054 381.732C368.913 374.115 392.29 362.311 413.179 346.829C413.281 346.755 413.366 346.66 413.428 346.55C413.491 346.44 413.529 346.318 413.54 346.192C419.308 286.55 403.884 234.739 372.659 188.814C372.59 188.664 372.469 188.543 372.319 188.474ZM230.645 314.762C217.02 314.762 205.804 302.254 205.804 286.896C205.804 271.537 216.81 259.03 230.645 259.03C244.595 259.03 255.714 271.645 255.487 286.896C255.498 302.254 244.487 314.762 230.645 314.762ZM322.522 314.762C308.897 314.762 297.68 302.254 297.68 286.896C297.68 271.537 308.686 259.03 322.522 259.03C336.471 259.03 347.591 271.645 347.364 286.896C347.369 302.254 336.471 314.762 322.522 314.762Z" fill="white"/>
</g>
<defs>
<clipPath id="clip0_94_20">
<rect width="553" height="553" fill="white"/>
</clipPath>
</defs>
</svg>
