<svg width="41" height="41" viewBox="0 0 41 41" fill="none" xmlns="http://www.w3.org/2000/svg">
<path d="M0.0368652 20.0521C0.0368652 8.97761 9.01447 0 20.0889 0C31.1634 0 40.141 8.97761 40.141 20.0521V20.9479C40.141 32.0224 31.1634 41 20.0889 41C9.01447 41 0.0368652 32.0224 0.0368652 20.9479V20.0521Z" fill="#F1EADC"/>
<path d="M24.6007 15H21.5928C21.0391 15 20.5902 15.4477 20.5902 16V19H24.6007C24.7147 18.9975 24.8228 19.0504 24.8906 19.1419C24.9584 19.2334 24.9774 19.352 24.9415 19.46L24.1996 21.66C24.1312 21.8619 23.942 21.9984 23.7284 22H20.5902V29.5C20.5902 29.7761 20.3658 30 20.0889 30H17.5824C17.3056 30 17.0811 29.7761 17.0811 29.5V22H15.5772C15.3004 22 15.0759 21.7761 15.0759 21.5V19.5C15.0759 19.2239 15.3004 19 15.5772 19H17.0811V16C17.0811 13.7909 18.8767 12 21.0915 12H24.6007C24.8775 12 25.102 12.2239 25.102 12.5V14.5C25.102 14.7761 24.8775 15 24.6007 15Z" fill="#162E3C"/>
</svg>
