<svg width="257" height="188" viewBox="0 0 257 188" fill="none" xmlns="http://www.w3.org/2000/svg">
<path fill-rule="evenodd" clip-rule="evenodd" d="M30.588 60.6981C34.506 47.94 43.5291 37.3843 55.5043 31.5495C66.3754 26.8856 78.9663 29.078 87.6325 37.1437C92.4528 41.0691 94.065 47.7387 91.572 53.4412C89.7835 55.2081 87.3206 56.1136 84.8168 55.9246C82.313 55.7357 80.013 54.4708 78.5084 52.4554C74.7406 46.4803 74.6851 38.8781 78.3653 32.8484C81.0992 26.834 84.9164 21.377 89.6251 16.7512C98.431 7.24612 111.466 2.90471 124.195 5.23798C135.949 7.65081 145.048 17.0074 147.155 28.8504C148.18 35.1714 145.477 41.5179 140.215 45.1478C135.745 47.692 130.064 46.1373 127.503 41.6686C126.573 38.1845 126.986 34.4773 128.659 31.2846C129.773 28.5376 131.21 25.9335 132.939 23.5277C136.553 18.5808 141.156 14.4439 146.454 11.381C156.981 5.00256 169.437 2.61198 181.57 4.64163C192.918 6.21041 202.835 13.1199 208.259 23.236C212.117 34.9861 206.724 47.7868 195.633 53.2062C192.97 54.8788 190.078 56.1536 187.049 56.9906C184.555 58.0313 181.693 57.621 179.59 55.9212C178.349 52.6878 179.174 49.0227 181.68 46.6372C183.432 44.2319 185.452 42.035 187.701 40.0889C196.949 32.0091 209.197 28.2697 221.367 29.8099C233.312 31.6369 243.596 39.2372 248.871 50.1359C254.419 60.5461 254.269 73.0782 248.476 83.3528C242.44 92.991 232.182 99.1662 220.86 99.9774C218.177 100.159 215.481 99.9767 212.846 99.4354C209.869 99.1424 207.062 97.9045 204.834 95.9018C203.714 93.9266 203.746 91.4988 204.918 89.5538C206.081 87.0892 207.958 85.0331 210.304 83.6531C220.043 78.8089 231.717 80.1905 240.064 87.1751C249.211 94.2023 253.671 105.767 251.619 117.136C249.185 129.77 241.629 140.823 230.755 147.656C220.512 154.249 208.04 156.394 196.192 153.6C190.472 152.217 185.249 149.265 181.108 145.074C177.404 141.477 175.626 136.329 176.318 131.206C177.06 128.79 178.997 126.93 181.437 126.293C183.878 125.656 186.473 126.332 188.296 128.08C192.883 132.763 194.855 139.422 193.559 145.856C192.176 158.033 185.578 169.003 175.482 175.913C166.043 182.928 153.767 184.842 142.648 181.034C132.565 176.886 124.673 168.698 120.884 158.453C118.953 153.541 118.109 148.267 118.41 142.996C118.599 140.288 119.153 137.619 120.058 135.061C120.472 132.258 122.265 129.851 124.829 128.657C127.511 128.61 129.886 130.388 130.601 132.981C131.398 136.5 131.171 140.174 129.946 143.568C128.271 149.686 125.534 155.46 121.861 160.625C114.958 170.794 104.205 177.688 92.1017 179.704C80.4988 181.188 68.8407 177.402 60.309 169.38C52.3171 161.749 49.2642 150.271 52.4049 139.664C53.8126 134.54 56.4986 129.86 60.2097 126.066C61.993 124.266 64.0308 122.74 66.2575 121.536C67.3465 120.949 68.4831 120.457 69.6553 120.063C70.9149 119.37 72.3805 119.152 73.7866 119.449C74.8916 121.44 74.8147 123.88 73.5863 125.797C72.3483 128.673 70.7916 131.4 68.9454 133.927C65.2112 139.051 60.3838 143.275 54.8151 146.291C49.3509 149.313 43.2036 150.876 36.9633 150.83C30.9684 150.671 25.1353 148.846 20.1136 145.559C9.72118 139.384 3.92516 127.657 5.31975 115.626C7.68107 103.888 16.9901 94.8084 28.7585 92.7656C34.7182 91.3825 40.9236 93.7218 44.4978 98.6993C47.9144 105.087 37.9228 107.062 33.6849 107.018C21.7413 107.302 11.3327 98.9128 9.04167 87.1569C6.75067 75.4009 13.2443 63.7009 24.416 59.456C30.028 56.8048 36.6268 57.373 41.7059 60.9447C43.673 62.5085 44.8621 64.8545 44.9625 67.3695C45.0628 69.8844 44.0644 72.3182 42.2282 74.0346C40.0202 75.0242 37.5029 75.0577 35.2695 74.127C33.0361 73.1964 31.284 71.3839 30.426 69.1166C28.6438 62.4634 30.5506 55.3626 35.4237 50.5058C37.0443 48.6264 34.3211 45.8729 32.6895 47.7639C26.4434 53.382 23.8107 62.0043 25.8497 70.1653C28.2516 76.6575 35.021 80.4193 41.785 79.0209C44.7609 77.853 47.1436 75.5347 48.397 72.5873C49.6504 69.64 49.6694 66.3112 48.4495 63.3497C45.3919 56.4936 38.2334 52.4372 30.798 53.3472C16.463 54.798 5.17691 66.254 3.90672 80.6433C3.13136 95.1019 12.9599 107.978 27.0825 111.006C33.8647 113.025 41.2004 111.693 46.8454 107.417C49.5637 104.758 50.3174 100.671 48.7272 97.213C47.1 93.9202 44.3601 91.3131 40.9954 89.8559C30.7855 86.8385 19.7474 89.1155 11.555 95.9291C3.36254 102.743 -0.908814 113.198 0.162607 123.816C1.13925 130.858 4.221 137.438 9.00177 142.69C18.865 153.867 34.2834 158.322 48.567 154.122C55.5265 151.992 61.8838 148.24 67.1178 143.172C69.8606 140.535 72.2794 137.578 74.3229 134.366C76.3306 131.458 77.8397 128.234 78.7878 124.828C79.849 121.734 79.1192 118.306 76.8908 115.916C73.5171 114.076 69.4139 114.214 66.1705 116.276C60.4044 118.792 55.5187 122.977 52.1389 128.294C44.755 139.389 44.1294 153.678 50.5152 165.38C57.9581 177.22 70.7776 184.584 84.7297 185.034C99.1669 185.382 112.966 179.074 122.171 167.917C127.008 162.292 130.769 155.819 133.263 148.825C137.2 141.82 136.725 133.161 132.045 126.631C129.356 123.902 125.294 123.061 121.747 124.499C118.531 126.486 116.212 129.649 115.28 133.319C113.11 139.456 112.595 146.06 113.787 152.461C116.125 165.33 123.952 176.534 135.216 183.135C147.393 189.843 162.199 189.6 174.151 182.496C186.754 175.418 195.475 162.989 197.862 148.704C199.458 141.128 197.89 133.226 193.523 126.839C191.375 123.911 188.12 121.998 184.523 121.549C180.925 121.101 177.302 122.156 174.505 124.468C170.342 129.622 169.774 136.814 173.078 142.56C176.234 148.572 181.362 153.307 187.597 155.968C200.951 161.691 216.163 161.093 229.029 154.341C242.381 147.549 252.071 135.203 255.516 120.594C257.109 113.72 256.744 106.535 254.463 99.859C252.179 93.7893 248.268 88.4699 243.161 84.4875C233.47 75.9378 219.611 74.0493 207.996 79.696C201.783 82.7517 198.42 89.6351 199.82 96.4298C201.399 99.7506 204.42 102.154 208.004 102.94C211.221 104.012 214.582 104.582 217.971 104.63C231.395 104.658 243.944 97.9512 251.404 86.7612C258.563 74.9783 258.874 60.2515 252.217 48.176C245.882 35.6269 233.628 27.1595 219.676 25.6922C205.411 24.4926 191.373 29.8495 181.514 40.2555C177.158 44.9159 170.654 54.1511 177.438 59.6617C184.099 62.685 191.903 61.574 197.462 56.8112C203.805 53.1388 208.813 47.5317 211.757 40.8067C214.245 34.6797 214.191 27.8102 211.607 21.7234C205.375 9.81971 193.606 1.84149 180.266 0.47815C166.119 -1.38187 151.797 2.22671 140.207 10.571C134.398 14.6731 129.629 20.0822 126.28 26.3648C121.628 32.4839 121.666 40.9758 126.373 47.0522C131.484 51.2945 138.856 51.3827 144.066 47.264C149.505 42.3406 152.007 34.9403 150.675 27.7156C147.912 13.9401 136.875 3.35314 123.026 1.19475C108.283 -0.593081 93.649 5.28748 84.2183 16.7896C78.7863 22.6321 74.7886 29.6646 72.5434 37.3281C69.9537 44.5217 72.2474 52.5698 78.2369 57.3056C80.6864 59.2406 83.8048 60.1156 86.9002 59.7367C89.9957 59.3577 92.8124 57.7561 94.7256 55.287C97.8509 48.7379 96.4827 40.9216 91.32 35.8308C81.8727 25.8159 67.2233 22.7208 54.5485 28.0617C41.3798 34.2043 31.594 45.8707 27.8161 59.9315C27.6318 60.6898 28.0821 61.4576 28.8325 61.6649C29.583 61.8722 30.3619 61.444 30.591 60.6981V60.6981H30.588Z" fill="#6C9AA9"/>
</svg>
