<svg width="41" height="41" viewBox="0 0 41 41" fill="none" xmlns="http://www.w3.org/2000/svg">
<path d="M0.786987 20.0521C0.786987 8.97761 9.7646 0 20.839 0C31.9135 0 40.8911 8.97761 40.8911 20.0521V20.9479C40.8911 32.0224 31.9135 41 20.839 41C9.7646 41 0.786987 32.0224 0.786987 20.9479V20.0521Z" fill="#F1EADC"/>
<path d="M29.595 13.761C29.7513 12.7541 28.7915 11.9594 27.8939 12.3525L10.017 20.1811C9.37337 20.4629 9.42045 21.4353 10.088 21.6474L13.7747 22.8183C14.4783 23.0418 15.2402 22.9263 15.8546 22.5029L24.1664 16.7753C24.4171 16.6026 24.6903 16.9581 24.4761 17.1783L18.4931 23.3308C17.9128 23.9276 18.028 24.9389 18.7261 25.3756L25.4247 29.5654C26.176 30.0353 27.1426 29.5632 27.2831 28.6577L29.595 13.761Z" fill="#162E3C"/>
</svg>
