<svg width="42" height="41" viewBox="0 0 42 41" fill="none" xmlns="http://www.w3.org/2000/svg">
<path d="M0.911926 20.0521C0.911926 8.97761 9.88953 0 20.964 0C32.0384 0 41.016 8.97761 41.016 20.0521V20.9479C41.016 32.0224 32.0384 41 20.964 41C9.88953 41 0.911926 32.0224 0.911926 20.9479V20.0521Z" fill="#F1EADC"/>
<path d="M29.961 15.7174C29.4954 16.3369 28.9326 16.8773 28.2942 17.3178C28.2942 17.4796 28.2942 17.6414 28.2942 17.8123C28.2993 20.7511 27.1224 23.5691 25.0272 25.6345C22.932 27.6999 20.0938 28.8399 17.149 28.7989C15.4465 28.8046 13.7658 28.4169 12.2386 27.6661C12.1562 27.6302 12.1031 27.549 12.1035 27.4593V27.3604C12.1035 27.2313 12.2083 27.1267 12.3377 27.1267C14.0112 27.0716 15.625 26.4929 16.9508 25.4724C15.436 25.4419 14.0731 24.5469 13.4459 23.1707C13.4142 23.0956 13.4241 23.0093 13.472 22.9432C13.5198 22.8771 13.5987 22.8407 13.6802 22.8471C14.1405 22.8932 14.6055 22.8505 15.0497 22.7212C13.3775 22.375 12.1211 20.9904 11.9413 19.2957C11.9349 19.2144 11.9714 19.1357 12.0377 19.0879C12.1039 19.0402 12.1903 19.0303 12.2656 19.062C12.7144 19.2595 13.1988 19.3635 13.6892 19.3676C12.224 18.4085 11.5911 16.5841 12.1485 14.9262C12.206 14.7651 12.3443 14.6461 12.5124 14.6129C12.6805 14.5798 12.8537 14.6373 12.9684 14.7644C14.9456 16.8633 17.6623 18.114 20.5457 18.2528C20.4719 17.9589 20.4356 17.6568 20.4376 17.3537C20.4646 15.7647 21.4503 14.3492 22.9334 13.7699C24.4163 13.1905 26.1031 13.562 27.2041 14.7104C27.9544 14.5679 28.6799 14.3165 29.3574 13.9642C29.407 13.9333 29.47 13.9333 29.5196 13.9642C29.5506 14.0137 29.5506 14.0765 29.5196 14.126C29.1914 14.8755 28.6371 15.5041 27.9339 15.9242C28.5497 15.853 29.1546 15.7081 29.7358 15.4926C29.7848 15.4594 29.849 15.4594 29.898 15.4926C29.939 15.5113 29.9697 15.5471 29.9818 15.5904C29.9939 15.6337 29.9863 15.6802 29.961 15.7174Z" fill="#162E3C"/>
</svg>
