<!-- icon666.com - MILLIONS vector ICONS FREE --><svg fill="none" viewBox="0 0 24 24" xmlns="http://www.w3.org/2000/svg"><g fill="rgb(0,0,0)"><path d="m15 7.35001h-7c-.26522 0-.51957.10535-.70711.29289-.18753.18754-.29289.44189-.29289.70711v10.14999c0 .663.26339 1.2989.73223 1.7678.46884.4688 1.10473.7322 1.76777.7322h4c.663 0 1.2989-.2634 1.7678-.7322.4688-.4689.7322-1.1048.7322-1.7678v-10.14999c0-.26522-.1054-.51957-.2929-.70711s-.4419-.29289-.7071-.29289z"></path><path d="m14 2h-5c-.26522 0-.51957.10536-.70711.29289-.18753.18754-.29289.44189-.29289.70711v2.89c0 .26522.10536.51957.29289.70711.18754.18753.44189.29289.70711.29289h5c.2652 0 .5196-.10536.7071-.29289.1875-.18754.2929-.44189.2929-.70711v-2.89c0-.26522-.1054-.51957-.2929-.70711-.1875-.18753-.4419-.29289-.7071-.29289zm-3.5 3.5c-.1981-.00259-.3874-.08244-.52747-.22253-.14009-.1401-.21994-.32936-.22253-.52747 0-.19891.07902-.38968.21967-.53033.14063-.14065.33143-.21967.53033-.21967s.3897.07902.5303.21967c.1407.14065.2197.33142.2197.53033-.0026.19811-.0824.38737-.2225.52747-.1401.14009-.3294.21994-.5275.22253zm2 0c-.1981-.00259-.3874-.08244-.5275-.22253-.1401-.1401-.2199-.32936-.2225-.52747 0-.19891.079-.38968.2197-.53033.1406-.14065.3314-.21967.5303-.21967s.3897.07902.5303.21967c.1407.14065.2197.33142.2197.53033-.0026.19811-.0824.38737-.2225.52747-.1401.14009-.3294.21994-.5275.22253z"></path></g></svg>