<svg width="376" height="376" viewBox="0 0 376 376" fill="none" xmlns="http://www.w3.org/2000/svg">
<path d="M142.379 325.747C142.379 331.845 147.349 336.815 153.446 336.815L222.444 336.815C228.542 336.815 233.512 331.845 233.512 325.747L233.471 280.598L142.336 280.597L142.379 325.747ZM209.188 291.883C210.004 291.883 210.742 292.214 211.277 292.748C211.811 293.282 212.141 294.021 212.141 294.836L212.141 319.643C212.141 321.275 210.82 322.596 209.188 322.596C207.557 322.596 206.235 321.275 206.235 319.643L206.235 294.836C206.235 293.205 207.557 291.883 209.188 291.883ZM168.784 292.748C169.319 293.282 169.649 294.021 169.649 294.836L169.649 319.643C169.649 321.275 168.328 322.596 166.696 322.596C165.065 322.596 163.743 321.275 163.743 319.643L163.743 294.836C163.743 293.205 165.065 291.883 166.696 291.883C167.512 291.883 168.25 292.214 168.784 292.748Z" fill="#6C9AA9"/>
<path d="M116.668 100.747L116.668 257.083C116.668 266.755 124.534 274.621 134.206 274.621L241.676 274.621C251.349 274.621 259.215 266.755 259.215 257.082L259.215 100.747C259.214 61.4485 227.239 29.4732 187.942 29.4732C148.643 29.4737 116.668 61.449 116.668 100.747ZM187.942 72.2556C192.184 72.2556 196.022 73.9809 198.808 76.7667C201.594 79.5524 203.323 83.3946 203.323 87.6365C203.323 95.1026 197.964 101.333 190.891 102.718L190.893 148.379L213.324 163.297L213.324 191C213.324 192.631 212.003 193.953 210.371 193.953C208.74 193.953 207.418 192.631 207.418 191L207.418 166.462L190.893 155.473L190.895 219.4L201.516 208.779C202.67 207.625 204.539 207.625 205.693 208.779C206.847 209.933 206.847 211.801 205.693 212.956L190.03 228.618C189.759 228.89 189.433 229.105 189.072 229.255C188.35 229.555 187.535 229.555 186.812 229.255C186.451 229.105 186.126 228.89 185.854 228.618L170.191 212.956C169.037 211.801 169.037 209.933 170.191 208.779C171.346 207.625 173.214 207.625 174.368 208.779L184.989 219.4L184.986 134.227L168.466 145.212L168.466 179.596C168.466 181.227 167.145 182.549 165.513 182.549C163.882 182.549 162.56 181.227 162.56 179.596L162.56 142.047L184.986 127.134L184.985 102.718C177.913 101.333 172.554 95.1006 172.561 87.6365C172.561 83.5251 174.164 79.6626 177.068 76.7585C179.972 73.8545 183.835 72.2515 187.942 72.2556Z" fill="#6C9AA9"/>
<path d="M181.245 94.3297C182.789 95.8735 184.873 96.8437 187.172 97.0329C187.422 96.9646 187.667 96.8789 187.938 96.8789C188.21 96.8789 188.455 96.9651 188.705 97.0339C193.569 96.6342 197.417 92.5962 197.417 87.6365C197.417 82.4239 193.167 78.1657 187.942 78.1616C185.409 78.1575 183.031 79.1486 181.245 80.9351C179.454 82.7257 178.471 85.1036 178.467 87.6365C178.467 90.2469 179.532 92.6166 181.245 94.3297Z" fill="#6C9AA9"/>
</svg>
